# xmcd
# 
# Track frame offsets:
#     150
#     14847
#     32118
#     47802
#     64905
#     79360
#     94997
#     108806
#     122949
#     138321
#     156545
#     171234
#     188854
#     205647
# 
# Disc length: 2984
# 
# Revision: 1
# Processed by: cddbd v1.5.2PL0 Copyright (c) Steve Scherf et al.
# Submitted via: fre:ac v1.0.31
# 
DISCID=cd0ba60e
DTITLE=Nicole Bus - Kairos
DYEAR=2020
DGENRE=R&B
TTITLE0=Mr. Big Shot
TTITLE1=Friend Indeed
TTITLE2=411
TTITLE3=Unchanging
TTITLE4=Comfort Me
TTITLE5=You
TTITLE6=Love It
TTITLE7=Rain
TTITLE8=With You
TTITLE9=S.O.S
TTITLE10=Stand Next To Me
TTITLE11=Look Up To The Sky
TTITLE12=You (Remix feat. Rick Ross)
TTITLE13=You (Remix feat. Ghostface Killah)
EXTD=
EXTT0=
EXTT1=
EXTT2=
EXTT3=
EXTT4=
EXTT5=
EXTT6=
EXTT7=
EXTT8=
EXTT9=
EXTT10=
EXTT11=
EXTT12=
EXTT13=
PLAYORDER=
